<svg width="25" height="25" viewBox="0 0 25 25" fill="none" xmlns="http://www.w3.org/2000/svg">
<path d="M7.8125 18.75C8.67545 18.75 9.375 19.4496 9.375 20.3125C9.375 21.1754 8.67545 21.875 7.8125 21.875C6.94955 21.875 6.25 21.1754 6.25 20.3125C6.25 19.4496 6.94955 18.75 7.8125 18.75Z" stroke="white"/>
<path d="M17.1875 18.7501C18.0504 18.7501 18.75 19.4496 18.75 20.3126C18.75 21.1755 18.0504 21.8751 17.1875 21.8751C16.3246 21.8751 15.625 21.1755 15.625 20.3126C15.625 19.4496 16.3246 18.7501 17.1875 18.7501Z" stroke="white"/>
<path d="M2.34247 2.38795C1.93541 2.24483 1.48942 2.4588 1.34632 2.86584C1.2032 3.27289 1.41717 3.71888 1.82422 3.86199L2.34247 2.38795ZM21.5185 10.2945L22.2837 10.4523L22.2847 10.4475L21.5185 10.2945ZM5.94592 10.1666V7.33159H4.38342V10.1666H5.94592ZM2.61456 2.4836L2.34247 2.38795L1.82422 3.86199L2.09631 3.95765L2.61456 2.4836ZM11.3932 16.9271H16.9171V15.3646H11.3932V16.9271ZM5.94592 7.33159C5.94592 6.59497 5.94699 5.98028 5.89291 5.48077C5.83694 4.96371 5.71568 4.49212 5.42195 4.06229L4.13189 4.94385C4.22591 5.08145 4.29852 5.27042 4.33949 5.64891C4.38236 6.04497 4.38342 6.56081 4.38342 7.33159H5.94592ZM2.09631 3.95765C2.79174 4.20215 3.24877 4.36419 3.58507 4.5292C3.90092 4.68417 4.04016 4.80962 4.13189 4.94385L5.42195 4.06229C5.12593 3.6291 4.73234 3.35166 4.27335 3.12646C3.83479 2.91127 3.27495 2.71579 2.61456 2.4836L2.09631 3.95765ZM4.38342 10.1666C4.38342 11.6797 4.39762 12.7707 4.54038 13.6042C4.6928 14.4941 4.99711 15.1313 5.5661 15.7314L6.69999 14.6564C6.36649 14.3047 6.1866 13.9602 6.08045 13.3405C5.96466 12.6643 5.94592 11.7177 5.94592 10.1666H4.38342ZM11.3932 15.3646C9.91739 15.3646 8.89337 15.3627 8.12184 15.2533C7.37725 15.1477 6.98388 14.9558 6.69999 14.6564L5.5661 15.7314C6.1847 16.3839 6.96888 16.668 7.90246 16.8003C8.80911 16.9289 9.96391 16.9271 11.3932 16.9271V15.3646ZM5.16467 7.15622H17.8008V5.59372H5.16467V7.15622ZM20.7533 10.1368L20.2328 12.6626L21.7631 12.978L22.2837 10.4523L20.7533 10.1368ZM17.8008 7.15622C18.6929 7.15622 19.478 7.15726 20.0976 7.22652C20.4055 7.26094 20.6359 7.30875 20.7978 7.36564C20.9659 7.42472 20.9927 7.47004 20.9793 7.45246L22.2177 6.49974C21.9729 6.18159 21.6288 6.00148 21.3158 5.8915C20.9966 5.77932 20.6355 5.71441 20.2713 5.6737C19.5465 5.59267 18.664 5.59372 17.8008 5.59372V7.15622ZM22.2847 10.4475C22.4609 9.56421 22.6106 8.82313 22.6473 8.22953C22.6849 7.6189 22.6154 7.01681 22.2177 6.49974L20.9793 7.45246C21.0439 7.53651 21.1152 7.68785 21.0877 8.13327C21.0592 8.59571 20.9377 9.21328 20.7524 10.1416L22.2847 10.4475ZM16.9171 16.9271C17.7105 16.9271 18.3764 16.9284 18.9131 16.8627C19.4712 16.7944 19.9801 16.6452 20.4244 16.2831L19.4373 15.0718C19.3069 15.1781 19.122 15.263 18.7233 15.3118C18.3033 15.3632 17.7497 15.3646 16.9171 15.3646V16.9271ZM20.2328 12.6626C20.0647 13.478 19.9516 14.0201 19.8165 14.421C19.6882 14.8015 19.5677 14.9656 19.4373 15.0718L20.4244 16.2831C20.8687 15.921 21.1176 15.4527 21.2972 14.92C21.4699 14.4075 21.6029 13.7551 21.7631 12.978L20.2328 12.6626Z" fill="white"/>
</svg>
