<svg width="120" height="122" viewBox="0 0 120 122" fill="none" xmlns="http://www.w3.org/2000/svg">
<path d="M80 61C80 72.2296 71.0455 81.3333 60 81.3333C48.9543 81.3333 40 72.2296 40 61C40 49.7702 48.9543 40.6667 60 40.6667C71.0455 40.6667 80 49.7702 80 61ZM80 61V68.625C80 75.6436 85.5965 81.3333 92.5 81.3333C99.4035 81.3333 105 75.6436 105 68.625V61C105 35.733 84.853 15.25 60 15.25C35.1472 15.25 15 35.733 15 61C15 86.2672 35.1472 106.75 60 106.75H80" stroke="black" stroke-width="5" stroke-linecap="round" stroke-linejoin="round"/>
</svg>
