<svg width="120" height="122" viewBox="0 0 120 122" fill="none" xmlns="http://www.w3.org/2000/svg">
<path d="M90 81.4147C96.225 84.1038 100 87.6316 100 91.5C100 99.9231 82.09 106.75 60 106.75C37.91 106.75 20 99.9231 20 91.5C20 87.6367 23.775 84.0987 30 81.4147" stroke="white" stroke-width="5" stroke-linecap="round" stroke-linejoin="round"/>
<path d="M85 42.9237C85 58.6464 60 86.4167 60 86.4167C60 86.4167 35 58.6464 35 42.9237C35 27.206 46.195 15.25 60 15.25C73.805 15.25 85 27.206 85 42.9237Z" stroke="white" stroke-width="5" stroke-linecap="round" stroke-linejoin="round"/>
<path d="M60 45.75C62.7614 45.75 65 43.4741 65 40.6667C65 37.8592 62.7614 35.5833 60 35.5833C57.2386 35.5833 55 37.8592 55 40.6667C55 43.4741 57.2386 45.75 60 45.75Z" stroke="white" stroke-width="5" stroke-linecap="round" stroke-linejoin="round"/>
</svg>
