<svg width="120" height="122" viewBox="0 0 120 122" fill="none" xmlns="http://www.w3.org/2000/svg">
<path d="M105 35.5833V15.25M105 15.25H85M105 15.25L75 45.75M92.5 106.75C49.698 106.75 15 71.4737 15 27.9583C15 25.995 15.0706 24.0485 15.2094 22.1213C15.3687 19.9095 15.4484 18.8036 16.0185 17.7969C16.4907 16.9631 17.3275 16.1724 18.1799 15.7545C19.209 15.25 20.4094 15.25 22.81 15.25H36.8966C38.9154 15.25 39.9248 15.25 40.7901 15.5878C41.5545 15.8862 42.2351 16.3708 42.7721 16.9992C43.3801 17.7105 43.725 18.6749 44.4149 20.6038L50.2455 36.9053C51.048 39.1494 51.4495 40.2715 51.3815 41.3361C51.3215 42.2749 51.006 43.1782 50.471 43.9457C49.8643 44.8161 48.8573 45.4304 46.8432 46.659L40 50.8333C46.0095 64.2986 56.7505 75.2328 70 81.3333L74.106 74.3763C75.3145 72.3282 75.9185 71.3044 76.7745 70.6878C77.5295 70.1439 78.418 69.8231 79.3415 69.7621C80.3885 69.693 81.4925 70.1012 83.7 70.9171L99.734 76.8448C101.631 77.5463 102.58 77.897 103.279 78.5151C103.897 79.0611 104.375 79.7529 104.668 80.5302C105 81.4096 105 82.4359 105 84.4886V98.8098C105 101.25 105 102.471 104.503 103.517C104.092 104.384 103.315 105.235 102.495 105.715C101.505 106.294 100.417 106.375 98.2415 106.537C96.3455 106.678 94.431 106.75 92.5 106.75Z" stroke="white" stroke-width="5" stroke-linecap="round" stroke-linejoin="round"/>
</svg>
